<?xml version="1.0" encoding="utf-8"?>
<!-- Generator: Adobe Illustrator 15.1.0, SVG Export Plug-In . SVG Version: 6.00 Build 0)  -->
<!DOCTYPE svg PUBLIC "-//W3C//DTD SVG 1.1//EN" "http://www.w3.org/Graphics/SVG/1.1/DTD/svg11.dtd">
<svg version="1.1" id="Layer_1" xmlns="http://www.w3.org/2000/svg" xmlns:xlink="http://www.w3.org/1999/xlink" x="0px" y="0px"
	 width="320px" height="49px" viewBox="0 0 320 49" enable-background="new 0 0 320 49" xml:space="preserve">
<g enable-background="new    ">
	<path fill="#414042" d="M20.159,20.82c11.879,0.72,13.68,5.88,13.68,9.659c0,11.7-17.04,17.52-25.979,17.52
		c-4.38,0-6.66-1.38-6.66-4.8c0-0.12,0.12-0.18,0.3-0.18c0.54,0,1.56,0.6,5.64,0.6c13.799,0,23.879-6.96,23.879-14.22
		c0-6.539-8.279-7.56-15.119-7.56c-1.56,0-3.18,0.061-4.5,0.061C9.54,28.38,7.8,35.04,6,41.22c-1.98,0-3.54-1.261-3.54-2.88
		c0-0.96,0.54-2.4,0.84-3.42c1.2-3.96,7.44-23.399,12.72-33.659c-5.04,0.9-7.5,3.24-8.28,3.24c-0.6,0-1.92-1.021-1.92-1.62
		c4.02-1.68,7.979-3.3,14.219-3.3c5.34,0,13.859,1.2,13.859,9.54C33.898,16.98,26.339,19.8,20.159,20.82z M19.019,0.901
		c-2.88,5.64-5.16,12.479-7.259,19.619c8.759-0.3,18.539-3.12,18.539-11.88c0-6.239-4.98-7.8-10.14-7.8
		C19.739,0.841,19.379,0.841,19.019,0.901z"/>
	<path fill="#414042" d="M37.139,35.159c1.08-2.1,3.12-6.3,4.86-11.399c-0.36-0.359-0.6-0.84-0.6-1.439c0-2.4,1.86-4.08,2.52-4.08
		c0.84,0,0.84,1.02,0.84,1.44c0,0.42-0.66,1.979-0.66,2.22c0,2.22,6.12,3.239,6.12,8.34c0,3.659-3,7.619-3,10.139
		c0,1.44,0.84,1.801,1.8,1.801c3.78,0,8.7-5.46,10.2-8.94l0.78,0.601c-2.28,5.1-7.439,10.499-12.539,10.499
		c-2.7,0-4.38-1.56-4.38-3.899c0-3.54,3.3-8.04,3.3-11.22c0-2.58-1.86-3.479-3.36-4.56c-1.86,4.739-4.08,9.359-5.34,11.52
		L37.139,35.159z"/>
	<path fill="#414042" d="M84.238,33.779c-1.74,4.021-4.02,5.16-6,5.16c-2.22,0-4.44-1.439-5.64-4.2c-2.52,5.88-6.3,9.96-10.5,9.96
		c-3.06,0-4.8-2.16-4.8-5.22c0-6.359,7.379-17.819,14.519-17.819c1.5,0,2.22,0.54,2.58,1.26c0.12-0.06,0.24-0.06,0.42-0.06
		c1.5,0,2.04,1.62,2.04,2.34c0,1.5-2.34,4.38-2.34,7.56c0,3.06,2.1,4.979,4.2,4.979c1.68,0,3.18-1.26,4.74-4.56L84.238,33.779z
		 M71.999,32.88c-0.24-0.96-0.36-2.04-0.36-3.42c0-2.7,0.48-4.44,1.14-5.46c-6.779,0-11.639,10.5-11.639,15.06
		c0,1.859,0.84,3.06,2.28,3.06C66.119,42.119,69.839,38.039,71.999,32.88z"/>
	<path fill="#414042" d="M108.538,33.779c-1.74,4.021-4.02,5.16-6,5.16c-2.22,0-4.44-1.439-5.64-4.2c-2.52,5.88-6.3,9.96-10.5,9.96
		c-3.06,0-4.8-2.16-4.8-5.22c0-6.359,7.379-17.819,14.519-17.819c1.5,0,2.22,0.54,2.58,1.26c0.12-0.06,0.24-0.06,0.42-0.06
		c1.5,0,2.04,1.62,2.04,2.34c0,1.5-2.34,4.38-2.34,7.56c0,3.06,2.1,4.979,4.2,4.979c1.68,0,3.18-1.26,4.74-4.56L108.538,33.779z
		 M96.298,32.88c-0.24-0.96-0.36-2.04-0.36-3.42c0-2.7,0.48-4.44,1.14-5.46c-6.779,0-11.639,10.5-11.639,15.06
		c0,1.859,0.84,3.06,2.28,3.06C90.418,42.119,94.139,38.039,96.298,32.88z"/>
	<path fill="#414042" d="M125.999,28.5c0-1.68-1.44-2.7-3-2.7c-7.08,0-11.279,16.439-12,17.76c-0.42,0.72-1.32,1.08-2.04,1.08
		c-2.04,0-2.1-2.88-2.1-5.641c0-12.539,13.919-39.058,18.179-39.058c1.08,0,1.86,1.739,1.86,3.899c0,5.52-5.16,14.22-12.239,18.479
		c-2.64,6.479-3.96,13.02-3.96,17.159c2.52-6.359,7.439-16.8,13.439-16.8c2.94,0,5.34,2.4,5.34,5.34c0,5.16-6.18,7.021-8.52,7.021
		c0.18,1.319,1.5,7.739,4.68,7.739c3.42,0,6.419-4.32,8.879-9.779l0.6,0.6c-1.74,5.88-6.48,11.46-10.68,11.46
		c-4.56,0-6.12-7.14-6.12-10.8C120.119,34.26,125.999,32.58,125.999,28.5z M115.679,19.92c5.52-4.439,9.18-11.52,9.18-14.579
		c0-0.42-0.06-0.54-0.18-0.54C123.479,4.801,119.159,11.881,115.679,19.92z"/>
	<path fill="#414042" d="M136.679,36.479c-0.18,0.78-0.24,1.56-0.24,2.16c0,2.46,1.02,5.04,4.74,5.04
		c5.1,0,10.439-4.86,13.439-10.62l0.72,0.54c-3.24,7.2-9.48,11.819-15.419,11.819c-4.86,0-7.32-3.06-7.32-6.96
		c0-7.14,8.16-17.279,15.239-17.279c1.86,0,3.72,0.721,3.72,3.66C151.558,30.96,143.518,35.819,136.679,36.479z M136.979,35.34
		c4.26-1.5,11.939-5.76,11.939-10.92c0-0.899-0.24-1.38-1.26-1.38C143.818,23.04,138.599,29.64,136.979,35.34z"/>
	<path fill="#414042" d="M193.438,43.68c0-0.841,0.119-1.74,0.42-2.761c-2.881,4.021-6.6,7.08-11.34,7.08
		c-6.3,0-11.22-5.46-11.22-14.879c0-15.42,13.259-33.479,24.659-33.479c4.56,0,6.24,3.24,6.24,6.78c0,4.2-2.4,8.76-5.28,8.76
		c-0.66,0-1.38-0.36-1.86-1.38c1.68-1.2,4.68-5.94,4.68-9.18c0-1.8-0.959-3.18-3.6-3.18c-8.64,0-20.039,19.559-20.039,32.878
		c0,7.26,3.42,11.64,8.039,11.64c6.301,0,11.4-10.319,12-18.179c-2.939-0.66-4.619-0.78-6.18-0.78c-1.08,0-2.16,0.06-3.66,0.06
		c0.541-2.279,1.98-3.119,4.08-3.119c3.359,0,7.439,2.159,10.14,2.819l-0.42,1.92c-3.06,7.979-3.659,11.76-3.659,14.64
		c0,1.62,0.18,3.06,0.239,4.68C194.697,47.219,193.438,45.839,193.438,43.68z"/>
	<path fill="#414042" d="M228.836,33.779c-1.74,4.021-4.02,5.16-6,5.16c-2.219,0-4.439-1.439-5.639-4.2
		c-2.521,5.88-6.301,9.96-10.5,9.96c-3.061,0-4.8-2.16-4.8-5.22c0-6.359,7.38-17.819,14.52-17.819c1.499,0,2.22,0.54,2.579,1.26
		c0.121-0.06,0.24-0.06,0.42-0.06c1.5,0,2.041,1.62,2.041,2.34c0,1.5-2.34,4.38-2.34,7.56c0,3.06,2.1,4.979,4.199,4.979
		c1.68,0,3.18-1.26,4.74-4.56L228.836,33.779z M216.597,32.88c-0.239-0.96-0.36-2.04-0.36-3.42c0-2.7,0.48-4.44,1.141-5.46
		c-6.779,0-11.64,10.5-11.64,15.06c0,1.859,0.84,3.06,2.28,3.06C210.717,42.119,214.438,38.039,216.597,32.88z"/>
	<path fill="#414042" d="M231.777,31.979c-0.48,2.16-0.779,4.26-0.779,6.06c0,3.12,0.899,4.62,2.639,4.62
		c3.181,0,6.541-4.92,8.641-9.6l0.899,0.48c-3.18,6.839-6.96,11.039-11.279,11.039c-3.42,0-4.8-2.64-4.8-6.18
		c0-11.52,14.579-38.818,18.659-38.818c1.26,0,1.979,2.76,1.979,4.439C247.736,9.36,240.537,24.72,231.777,31.979z M232.317,29.939
		c6.96-7.02,13.56-20.519,13.56-24.539c0-0.779-0.24-0.96-0.42-0.96C243.837,4.44,235.617,18.36,232.317,29.939z"/>
	<path fill="#414042" d="M256.557,22.98c-6.479,0-12.18,11.219-12.18,15.839c0,1.8,0.84,2.88,2.16,2.88
		c3.24,0,9.119-6.479,12.959-16.499c4.44-11.58,9.84-25.619,13.141-25.619c0.659,0,1.199,0.6,1.199,1.38
		c0,3.78-13.799,25.739-13.799,37.618c0,2.28,0,3.36,1.379,3.36c2.461,0,6.721-3.42,9.24-8.88l0.72,0.54
		c-2.34,6.18-7.56,10.739-11.64,10.739c-3,0-3.959-2.399-3.959-4.499c0-1.381,0.42-3.66,1.139-6.42
		c-3.899,6.42-8.579,11.159-12.238,11.159c-2.041,0-4.5-1.5-4.5-5.04c0-6.659,8.699-18.359,16.139-18.359
		c1.68,0,2.641,0.601,2.641,1.86c0,0.3-0.061,0.54-0.121,0.84C258.416,23.28,257.637,22.98,256.557,22.98z"/>
	<path fill="#414042" d="M272.817,36.479c-0.181,0.78-0.24,1.56-0.24,2.16c0,2.46,1.021,5.04,4.739,5.04
		c5.101,0,10.439-4.86,13.439-10.62l0.721,0.54c-3.24,7.2-9.48,11.819-15.42,11.819c-4.859,0-7.319-3.06-7.319-6.96
		c0-7.14,8.159-17.279,15.239-17.279c1.859,0,3.72,0.721,3.72,3.66C287.696,30.96,279.656,35.819,272.817,36.479z M273.117,35.34
		c4.26-1.5,11.939-5.76,11.939-10.92c0-0.899-0.24-1.38-1.26-1.38C279.957,23.04,274.737,29.64,273.117,35.34z"/>
	<path fill="#414042" d="M291.598,27.6c0.479-0.54,1.619-1.26,2.76-1.26c1.08,0,1.619,0.6,1.619,1.561c0,1.26-0.84,4.619-1.92,7.919
		c3.18-4.859,7.92-10.56,12.48-10.56c3.119,0,4.439,2.7,4.439,5.4c0,3.72-2.46,6.539-2.46,9.479c0,1.68,0.78,2.279,1.8,2.279
		c3,0,6.18-4.919,8.4-9.359l0.659,0.78c-2.52,5.88-5.88,10.14-10.38,10.14c-2.819,0-4.199-1.62-4.199-3.84
		c0-2.46,1.74-5.521,1.74-8.34c0-2.22-1.021-2.94-2.4-2.94c-4.98,0-10.5,9.54-13.619,14.82c-1.26,0-2.52-0.42-3.18-1.32
		C287.338,41.64,291.537,32.819,291.598,27.6z"/>
</g>
</svg>
